<?xml version="1.0" encoding="UTF-8"?>
<svg width="26px" height="20px" viewBox="0 0 26 20" version="1.1" xmlns="http://www.w3.org/2000/svg" xmlns:xlink="http://www.w3.org/1999/xlink">
    <!-- Generator: Sketch 52.5 (67469) - http://www.bohemiancoding.com/sketch -->
    <title>icon/motionblock</title>
    <desc>Created with Sketch.</desc>
    <g id="Page-1" stroke="none" stroke-width="1" fill="none" fill-rule="evenodd">
        <g id="Artboard" transform="translate(-542.000000, -276.000000)" fill="#FFFFFF">
            <path d="M542.694936,276.061344 L543.386885,276.457427 C543.96485,276.788263 544.321429,277.403238 544.321429,278.069193 L544.321429,290.334908 C544.321429,291.004486 543.960993,291.622223 543.378078,291.951684 L542.692734,292.339036 C542.469504,292.465204 542.18626,292.38652 542.060092,292.16329 C542.020701,292.093595 542,292.014899 542,291.934842 L542,276.464286 C542,276.207868 542.207868,276 542.464286,276 C542.545201,276 542.624711,276.021147 542.694936,276.061344 Z M567.308543,276.222409 C567.377929,276.183481 567.456154,276.163036 567.535714,276.163036 C567.792132,276.163036 568,276.370904 568,276.627322 L568,291.774292 C568,291.853003 567.979989,291.930422 567.941848,291.999274 C567.817594,292.223575 567.535034,292.30468 567.310733,292.180426 L566.635788,291.806533 C566.0451,291.479316 565.678571,290.857264 565.678571,290.181999 L565.678571,278.224415 C565.678571,277.55274 566.041248,276.933409 566.627029,276.604764 L567.308543,276.222409 Z M547.217922,293.685481 L562.861737,293.685481 C563.353172,293.685481 563.824573,293.880266 564.172669,294.227163 L565.154652,295.205766 C565.33628,295.386768 565.336787,295.680737 565.155785,295.862364 C565.068669,295.949781 564.950333,295.998917 564.826919,295.998917 L545.252739,295.998917 C544.996321,295.998917 544.788454,295.791049 544.788454,295.534631 C544.788454,295.411218 544.837589,295.292882 544.925006,295.205766 L545.90699,294.227163 C546.255086,293.880266 546.726487,293.685481 547.217922,293.685481 Z M548.035714,276.103371 L561.964286,276.103371 C562.989957,276.103371 563.821429,276.934842 563.821429,277.960514 L563.821429,289.97759 C563.821429,291.003262 562.989957,291.834733 561.964286,291.834733 L548.035714,291.834733 C547.010043,291.834733 546.178571,291.003262 546.178571,289.97759 L546.178571,277.960514 C546.178571,276.934842 547.010043,276.103371 548.035714,276.103371 Z M554.973818,281.979337 L551.760508,280.124131 C551.317908,279.868596 550.751958,280.020242 550.496423,280.462842 C550.421276,280.593001 550.381342,280.733827 550.373667,280.87429 C550.36282,280.931059 550.357143,280.989663 550.357143,281.049593 L550.357143,287.520818 C550.357143,288.033654 550.772878,288.44939 551.285714,288.44939 C551.79855,288.44939 552.214286,288.033654 552.214286,287.520818 L552.214286,282.52318 L554.45942,283.819409 C554.621449,283.912957 554.800008,283.951934 554.973818,283.942045 C555.147628,283.951934 555.326187,283.912957 555.488216,283.819409 L557.73335,282.52318 L557.73335,287.520818 C557.73335,288.033654 558.149086,288.44939 558.661922,288.44939 C559.174758,288.44939 559.590493,288.033654 559.590493,287.520818 L559.590493,281.049593 C559.590493,280.989663 559.584816,280.931059 559.573969,280.87429 C559.566294,280.733827 559.52636,280.593001 559.451213,280.462842 C559.195678,280.020242 558.629728,279.868596 558.187128,280.124131 L554.973818,281.979337 Z" id="icon/motionblock"></path>
        </g>
    </g>
</svg>