<?xml version="1.0" encoding="UTF-8"?>
<svg width="28px" height="28px" viewBox="0 0 28 28" version="1.1" xmlns="http://www.w3.org/2000/svg" xmlns:xlink="http://www.w3.org/1999/xlink">
    <title>icon/translate 彩色</title>
    <g id="Page-1" stroke="none" stroke-width="1" fill="none" fill-rule="evenodd">
        <g id="Artboard" transform="translate(-81.000000, -230.000000)">
            <g id="icon/translate-彩色" transform="translate(81.000000, 230.000000)">
                <path d="M12,0 C14.209139,-4.05812251e-16 16,1.790861 16,4 L16,12 C16,14.209139 14.209139,16 12,16 L4,16 C1.790861,16 2.705415e-16,14.209139 0,12 L0,4 C-2.705415e-16,1.790861 1.790861,4.05812251e-16 4,0 L12,0 Z M8.45656566,4 L6.94545455,4 L7.24848485,5.05588216 L4,5.05588216 L4,6.45547593 L9.81818182,6.45547593 C9.32525253,7.43365248 8.72727273,8.21985045 7.98383838,8.85063719 C7.34545455,8.31126882 6.82020202,7.6621984 6.37575758,6.86685859 L4.74343434,6.86685859 C5.21212121,7.89074432 5.88282828,8.84149536 6.83636364,9.62769333 C6.05252525,10.0482178 5.13939394,10.4733132 4.05656566,10.7018592 L4.25858586,12 C5.85858586,11.7805959 6.94141414,11.0081107 7.98383838,10.4230331 C9.02626263,11.0081107 10.1171717,11.7805959 11.7171717,12 L11.9191919,10.7018592 C10.8363636,10.4733132 9.92323232,10.0482178 9.13939394,9.62769333 C10.2222222,8.73179331 10.9333333,7.62563105 11.410101,6.45547593 L12,6.45547593 L12,5.05588216 L8.75959596,5.05588216 L8.45656566,4 Z" id="形状结合" fill="#FF9920"></path>
                <path d="M24,12 C26.209139,12 28,13.790861 28,16 L28,24 C28,26.209139 26.209139,28 24,28 L16,28 C13.790861,28 12,26.209139 12,24 L12,17 C14.7614237,17 17,14.7614237 17,12 L17,12 L24,12 Z M20.776267,16.5 L19.3918418,16.5 L16,23.6111111 L17.9708282,23.6111111 L18.6992189,21.9950968 L21.3695921,21.9950968 L22.1428925,23.6111111 L24,23.6111111 L20.776267,16.5 Z M20.0488326,18.8365079 L20.8372093,20.7666667 L19.1627907,20.7666667 L20.0488326,18.8365079 Z" id="形状结合" fill="#357FF8"></path>
                <path d="M3.01230485,18.0498369 C3.05497102,18.0656038 3.0963406,18.0846789 3.13603619,18.1068883 C3.77842459,18.4662998 4.18762219,18.6966138 4.36362898,18.7978302 C4.51963463,18.8875446 4.92097459,19.1222747 5.56764885,19.5020207 C5.84504774,19.664872 5.93786345,20.0217766 5.77497838,20.2991556 C5.68770426,20.4477758 5.53908866,20.550111 5.36911391,20.5786297 L4.18390869,20.7780853 C4.80396218,22.8918897 6.78156808,24.4457866 9.13679674,24.4830682 L9.22347523,24.4837537 C9.65233802,24.4837537 10,24.823177 10,25.2418769 C10,25.6605767 9.65233802,26 9.22347523,26 C6.17263118,26 3.59141686,24.0369251 2.73275057,21.3340027 L1.90100027,21.8645572 C1.6297955,22.0375503 1.26971724,21.9578651 1.09677608,21.6866272 C1.00689795,21.5456639 0.981923729,21.3728767 1.02820834,21.2122328 C1.24171217,20.4712071 1.37650224,20.0138793 1.43257856,19.8402495 C1.48763545,19.6697761 1.61666296,19.3088019 1.81966108,18.7573267 L1.89007503,18.5664491 C2.05731171,18.1138954 2.55975112,17.8826002 3.01230485,18.0498369 Z M18.7765248,2 C21.8273688,2 24.4085831,3.96307488 25.2672494,6.66599727 L26.0989997,6.13544277 C26.3702045,5.96244967 26.7302828,6.0421349 26.9032239,6.31337279 C26.9931021,6.45433608 27.0180763,6.62712331 26.9717917,6.78776721 C26.7582878,7.5287929 26.6234978,7.98612066 26.5674214,8.15975048 C26.5123645,8.33022386 26.383337,8.69119813 26.1803389,9.24267329 L26.109925,9.43355088 C25.9426883,9.88610461 25.4402489,10.1173998 24.9876952,9.95016309 C24.945029,9.93439624 24.9036594,9.91532111 24.8639638,9.89311173 C24.2215754,9.5337002 23.8123778,9.30338622 23.636371,9.20216979 C23.4803654,9.11245544 23.0790254,8.87772527 22.4323512,8.49797927 C22.1549523,8.33512802 22.0621366,7.97822344 22.2250216,7.7008444 C22.3122957,7.5522242 22.4609113,7.44988902 22.6308861,7.42137028 L23.8160913,7.2219147 C23.1960378,5.10811027 21.2184319,3.55421337 18.8632033,3.51693185 L18.7765248,3.51624627 C18.347662,3.51624627 18,3.17682298 18,2.75812314 C18,2.33942329 18.347662,2 18.7765248,2 Z" id="形状结合" fill="#BCDAFB" fill-rule="nonzero"></path>
            </g>
        </g>
    </g>
</svg>