<?xml version="1.0" encoding="UTF-8"?>
<svg width="30px" height="23px" viewBox="0 0 30 23" version="1.1" xmlns="http://www.w3.org/2000/svg" xmlns:xlink="http://www.w3.org/1999/xlink">
    <!-- Generator: Sketch 52.2 (67145) - http://www.bohemiancoding.com/sketch -->
    <title>图片白</title>
    <desc>Created with Sketch.</desc>
    <g id="Page-1" stroke="none" stroke-width="1" fill="none" fill-rule="evenodd">
        <g id="图片白" fill="#FFFFFF">
            <g id="分组-copy-11">
                <path d="M3.6,3 L26.4,3 C26.7313708,3 27,3.26862915 27,3.6 L27,18.4 C27,18.7313708 26.7313708,19 26.4,19 L3.6,19 C3.26862915,19 3,18.7313708 3,18.4 L3,3.6 C3,3.26862915 3.26862915,3 3.6,3 Z M12.2720354,16 L21.7279894,16 C21.9195807,16 22.0510607,15.783453 21.9808397,15.5833985 L17.7375788,6.56346966 C17.4738539,5.81217678 16.5261163,5.81217678 16.2623914,6.56346966 L14.4326762,10.4529579 L13.0529974,8.32907551 C12.8072002,7.89030816 12.1928252,7.89030816 11.947087,8.32907551 L7.00562071,15.9358954 C6.98964684,15.9643931 7.00962891,16 7.0415177,16 L12.2720354,16 Z M11,6 C11,5.44771999 10.55228,5 10,5 C9.44771999,5 9,5.44771999 9,6 C9,6.55228001 9.44771999,7 10,7 C10.55228,7 11,6.55228001 11,6 Z" id="合并形状" fill-rule="nonzero"></path>
                <g id="分组">
                    <path d="M28.8986846,0.00788484608 L25.6714609,0.00788484608 L25.6714609,2.28169116 L27.0962588,2.28169116 C27.4155849,2.28169116 27.6768518,2.53767214 27.6768518,2.84974771 L27.6768518,4.28371521 L29.9627547,4.28371521 L29.9627547,1.04681998 C29.9627547,0.475603171 29.4840485,0.00788484608 28.8986846,0.00788484608 Z M27.6768518,19.3650179 C27.6768518,19.6770935 27.4155849,19.9330744 27.0962588,19.9330744 L25.6714609,19.9330744 L25.6714609,22.2068808 L28.8986846,22.2068808 C29.4840485,22.2068808 29.9627547,21.7391624 29.9627547,21.1679456 L29.9627547,17.8259718 L27.6768518,17.8259718 L27.6768518,19.3650179 Z M1.06410243,0.00788484608 C0.478738544,0.00788484608 3.23450135e-05,0.475603171 3.23450135e-05,1.04681998 L3.23450135e-05,4.28371521 L2.28601617,4.28371521 L2.28601617,2.84974771 C2.28601617,2.53767214 2.54720216,2.28169116 2.8665283,2.28169116 L4.45232345,2.28169116 L4.45232345,0.00788484608 L1.06410243,0.00788484608 Z M2.28601617,19.3650179 L2.28601617,17.8259718 L3.23450135e-05,17.8259718 L3.23450135e-05,21.1679456 C3.23450135e-05,21.7391624 0.478738544,22.2068808 1.06410243,22.2068808 L4.45232345,22.2068808 L4.45232345,19.9330744 L2.8665283,19.9330744 C2.54720216,19.9330744 2.28601617,19.6770935 2.28601617,19.3650179 Z" id="Fill-7"></path>
                </g>
            </g>
        </g>
    </g>
</svg>