<?xml version="1.0" encoding="UTF-8"?>
<svg width="30px" height="23px" viewBox="0 0 30 23" version="1.1" xmlns="http://www.w3.org/2000/svg" xmlns:xlink="http://www.w3.org/1999/xlink">
    <!-- Generator: Sketch 52.2 (67145) - http://www.bohemiancoding.com/sketch -->
    <title>语音蓝</title>
    <desc>Created with Sketch.</desc>
    <g id="Page-1" stroke="none" stroke-width="1" fill="none" fill-rule="evenodd">
        <g id="语音蓝" fill="#7FC8F5">
            <path d="M3.6,3 L26.4,3 C26.7313708,3 27,3.26862915 27,3.6 L27,18.4 C27,18.7313708 26.7313708,19 26.4,19 L3.6,19 C3.26862915,19 3,18.7313708 3,18.4 L3,3.6 C3,3.26862915 3.26862915,3 3.6,3 Z M15.3275434,15.4916381 C16.9860409,15.3740426 18.3052109,14.0309781 18.3052109,12.4056762 L18.3052109,11.2631339 C18.3052109,11.1178119 18.18283,11 18.031906,11 C17.8809139,11 17.7585329,11.1178119 17.7585329,11.2631339 L17.7585329,12.2495992 C17.7585329,13.7397406 16.4920452,14.958977 14.9440778,14.958977 C13.3961446,14.958977 12.1296228,13.7397734 12.1296228,12.2495992 L12.1296228,11.2523135 C12.1296228,11.112959 12.0122829,11 11.8675239,11 C11.7227649,11 11.6054591,11.112959 11.6054591,11.2523135 L11.6054591,12.4056762 C11.6054591,14.0309781 12.924629,15.3740426 14.5831266,15.4916381 L14.5831266,16.6629123 C14.5831266,16.8483121 14.7506186,17 14.955335,17 C15.1600514,17 15.3275434,16.8483121 15.3275434,16.6629123 L15.3275434,15.4916381 Z M17.1583503,7.222532 C17.1583503,6.614782 16.9089435,6.062282 16.5069584,5.661882 C16.1052993,5.261157 15.5510619,5.012532 14.9414008,5.012532 C13.7220786,5.012532 12.7244513,6.007032 12.7244513,7.222532 L12.7244513,8.776032 C13.462239,8.772457 14.1830737,8.972007 14.8644596,9.372407 C14.8690239,9.375007 14.8735882,9.377932 14.8778265,9.380857 C15.1986322,9.526132 15.7408067,9.731857 16.3788318,9.815057 C16.6474739,9.849832 16.9073134,9.860557 17.1583503,9.846907 L17.1583503,7.222532 Z M17.1885856,10.6314821 C16.9025325,10.646215 16.6079404,10.63251 16.3054664,10.5900245 C15.5382791,10.4824403 14.9064005,10.2162209 14.5605751,10.0442233 C14.5320026,10.0301757 14.5070428,10.0120166 14.4853343,9.9904312 C13.9162166,9.65911308 13.3270325,9.49533845 12.7220844,9.50010094 L12.7220844,12.0451518 C12.7220844,13.3265683 13.7270471,14.375 14.955335,14.375 C16.1836228,14.375 17.1885856,13.3265683 17.1885856,12.0451518 L17.1885856,10.6314821 Z M10.6139885,9.50164474 C9.91502405,9.80526316 9.38387545,10.2197368 9.09978021,10.4707237 C8.97093883,10.5845395 8.96642938,10.7868421 9.08882869,10.9072368 L9.0894729,10.9078947 C9.19705545,11.0138158 9.36583766,11.0190789 9.47889597,10.9197368 C9.7330356,10.6957237 10.222955,10.3118421 10.858143,10.0388158 C11.3541823,9.82598684 11.8418469,9.71776316 12.3198484,9.71447368 L12.3198484,9.125 C11.7577779,9.12796053 11.1857222,9.25328947 10.6139885,9.50164474 Z M20.5136064,9.06691518 C20.5136064,8.98254018 20.4784431,8.8985 20.4085181,8.83890179 C20.2867683,8.73477232 20.1064354,8.74515179 19.9953584,8.85999554 C19.3151789,9.56379018 18.500837,9.94314286 17.5633401,9.99336607 L17.5633401,10.5957098 C17.6911791,10.589683 17.8169437,10.5779643 17.9410689,10.5612232 C18.8859263,10.4336562 19.7283386,10.001067 20.4272875,9.27952679 C20.4848334,9.21992857 20.5136064,9.14325446 20.5136064,9.06691518 Z" id="合并形状" fill-rule="nonzero"></path>
            <path d="M28.8986523,-4.4408921e-14 L25.6714286,-4.4408921e-14 L25.6714286,2.27380632 L27.0962264,2.27380632 C27.4155526,2.27380632 27.6768194,2.52978729 27.6768194,2.84186286 L27.6768194,4.27583036 L29.9627224,4.27583036 L29.9627224,1.03893513 C29.9627224,0.467718325 29.4840162,-4.4408921e-14 28.8986523,-4.4408921e-14 Z M27.6768194,19.357133 C27.6768194,19.6692086 27.4155526,19.9251896 27.0962264,19.9251896 L25.6714286,19.9251896 L25.6714286,22.1989959 L28.8986523,22.1989959 C29.4840162,22.1989959 29.9627224,21.7312776 29.9627224,21.1600608 L29.9627224,17.8180869 L27.6768194,17.8180869 L27.6768194,19.357133 Z M1.06407008,-4.4408921e-14 C0.478706199,-4.4408921e-14 0,0.467718325 0,1.03893513 L0,4.27583036 L2.28598383,4.27583036 L2.28598383,2.84186286 C2.28598383,2.52978729 2.54716981,2.27380632 2.86649596,2.27380632 L4.45229111,2.27380632 L4.45229111,-4.4408921e-14 L1.06407008,-4.4408921e-14 Z M2.28598383,19.357133 L2.28598383,17.8180869 L0,17.8180869 L0,21.1600608 C0,21.7312776 0.478706199,22.1989959 1.06407008,22.1989959 L4.45229111,22.1989959 L4.45229111,19.9251896 L2.86649596,19.9251896 C2.54716981,19.9251896 2.28598383,19.6692086 2.28598383,19.357133 Z" id="Fill-7-Copy-8"></path>
        </g>
    </g>
</svg>