<?xml version="1.0" encoding="UTF-8"?>
<svg width="30px" height="23px" viewBox="0 0 30 23" version="1.1" xmlns="http://www.w3.org/2000/svg" xmlns:xlink="http://www.w3.org/1999/xlink">
    <!-- Generator: Sketch 52.2 (67145) - http://www.bohemiancoding.com/sketch -->
    <title>文字白</title>
    <desc>Created with Sketch.</desc>
    <g id="Page-1" stroke="none" stroke-width="1" fill="none" fill-rule="evenodd">
        <g id="文字白">
            <g id="分组-copy-9">
                <path d="M28.8986361,0.0080925784 L25.6714124,0.0080925784 L25.6714124,2.3441448 L27.0962102,2.3441448 C27.4156173,2.3441448 27.6768841,2.60721447 27.6768841,2.92783318 L27.6768841,4.40097466 L29.9627871,4.40097466 L29.9627871,1.07546877 C29.9627871,0.488614786 29.4840809,0.0080925784 28.8986361,0.0080925784 Z M27.6768841,19.2655826 C27.6768841,19.5861201 27.4156173,19.8491086 27.0962102,19.8491086 L25.6714124,19.8491086 L25.6714124,22.1851608 L28.8986361,22.1851608 C29.4840809,22.1851608 29.9627871,21.7046386 29.9627871,21.1177846 L29.9627871,17.6843236 L27.6768841,17.6843236 L27.6768841,19.2655826 Z M1.06413477,0.0080925784 C0.478690027,0.0080925784 -1.61725068e-05,0.488614786 -1.61725068e-05,1.07546877 L-1.61725068e-05,4.40097466 L2.28604852,4.40097466 L2.28604852,2.92783318 C2.28604852,2.60721447 2.54715364,2.3441448 2.86656065,2.3441448 L4.4523558,2.3441448 L4.4523558,0.0080925784 L1.06413477,0.0080925784 Z M2.28604852,19.2655826 L2.28604852,17.6843236 L-1.61725068e-05,17.6843236 L-1.61725068e-05,21.1177846 C-1.61725068e-05,21.7046386 0.478690027,22.1851608 1.06413477,22.1851608 L4.4523558,22.1851608 L4.4523558,19.8491086 L2.86656065,19.8491086 C2.54715364,19.8491086 2.28604852,19.5861201 2.28604852,19.2655826 Z" id="Fill-1" fill="#FFFFFF"></path>
                <path d="M3.6,3 L26.4,3 C26.7313708,3 27,3.26862915 27,3.6 L27,18.4 C27,18.7313708 26.7313708,19 26.4,19 L3.6,19 C3.26862915,19 3,18.7313708 3,18.4 L3,3.6 C3,3.26862915 3.26862915,3 3.6,3 Z M15.9459459,7.37908497 L19.7297297,7.37908497 L19.7297297,9.14661558 C19.7297297,9.65072647 20.0867404,10.0631808 20.5230867,10.0631808 L20.8282647,10.0631808 C21.264611,10.0631808 21.6216216,9.65072647 21.6216216,9.14661558 L21.6216216,6.61215174 L21.6216216,6.1329463 C21.6216216,5.71113302 21.2831778,5.36601307 20.8695243,5.36601307 L9.13047571,5.36601307 C8.71688485,5.36601307 8.37837838,5.71113302 8.37837838,6.1329463 L8.37837838,6.61215174 L8.37837838,9.14661558 C8.37837838,9.65072647 8.73538901,10.0631808 9.17173534,10.0631808 L9.47691331,10.0631808 C9.91325964,10.0631808 10.2702703,9.65072647 10.2702703,9.14661558 L10.2702703,7.37908497 L14.0540541,7.37908497 L14.0540541,15 L12.7483211,15 C12.3367445,15 12,15.34512 12,15.7669332 L12,16.2461387 C12,16.6680159 12.3367445,17.0130719 12.7483211,17.0130719 L16.9273545,17.0130719 C17.3389935,17.0130719 17.6756757,16.6680159 17.6756757,16.2461387 L17.6756757,15.7669332 C17.6756757,15.34512 17.3389935,15 16.9273545,15 L15.9459459,15 L15.9459459,7.37908497 Z" id="合并形状" fill="#FFFFFF" fill-rule="nonzero"></path>
                <g id="分组-2" transform="translate(8.000000, 5.000000)"></g>
            </g>
        </g>
    </g>
</svg>