<?xml version="1.0" encoding="UTF-8"?>
<svg width="30px" height="23px" viewBox="0 0 30 23" version="1.1" xmlns="http://www.w3.org/2000/svg" xmlns:xlink="http://www.w3.org/1999/xlink">
    <!-- Generator: Sketch 52.2 (67145) - http://www.bohemiancoding.com/sketch -->
    <title>nlp白</title>
    <desc>Created with Sketch.</desc>
    <g id="Page-1" stroke="none" stroke-width="1" fill="none" fill-rule="evenodd">
        <g id="nlp白" fill="#FFFFFF">
            <g id="分组-3-copy-3">
                <path d="M8.24307039,19 L3.71454787,21.1512874 C3.64750834,21.1831347 3.57421961,21.1996579 3.5,21.1996579 C3.22385763,21.1996579 3,20.9758003 3,20.6996579 L3,18.4 L3,3.6 C3,3.26862915 3.26862915,3 3.6,3 L26.4,3 C26.7313708,3 27,3.26862915 27,3.6 L27,18.4 C27,18.7313708 26.7313708,19 26.4,19 L8.24307039,19 Z M6.774,14.304 L8.36692035,14.304 L8.36692035,11.9800753 C8.36692035,11.1333011 8.22636856,10.1736237 8.1514076,9.39270968 L8.1982582,9.39270968 L8.88227694,10.9263118 L10.606379,14.304 L12.3117408,14.304 L12.3117408,7.304 L10.7188204,7.304 L10.7188204,9.61851613 C10.7188204,10.4558817 10.8500021,11.4626022 10.9437033,12.2058817 L10.8968527,12.2058817 L10.2128339,10.6534624 L8.47936179,7.304 L6.774,7.304 L6.774,14.304 Z M13.9327715,14.304 L18.3179875,14.304 L18.3179875,12.8927097 L15.6100229,12.8927097 L15.6100229,7.304 L13.9327715,7.304 L13.9327715,14.304 Z M19.526733,14.304 L21.2039844,14.304 L21.2039844,11.9800753 L22.0191848,11.9800753 C23.4902936,11.9800753 24.774,11.2462043 24.774,9.58088172 C24.774,7.84969892 23.5090338,7.304 21.9723342,7.304 L19.526733,7.304 L19.526733,14.304 Z M21.2039844,10.6534624 L21.2039844,8.6306129 L21.8880031,8.6306129 C22.6938334,8.6306129 23.1435992,8.87523656 23.1435992,9.58088172 C23.1435992,10.2677097 22.7500541,10.6534624 21.9348537,10.6534624 L21.2039844,10.6534624 Z" id="合并形状" fill-rule="nonzero"></path>
                <path d="M28.8986523,0 L25.6714286,0 L25.6714286,2.33605222 L27.0962264,2.33605222 C27.4156334,2.33605222 27.6769003,2.5991219 27.6769003,2.9197406 L27.6769003,4.39288208 L29.9628032,4.39288208 L29.9628032,1.06737619 C29.9628032,0.480522208 29.484097,0 28.8986523,0 Z M27.6769003,19.25749 C27.6769003,19.5780275 27.4156334,19.841016 27.0962264,19.841016 L25.6714286,19.841016 L25.6714286,22.1770683 L28.8986523,22.1770683 C29.484097,22.1770683 29.9628032,21.696546 29.9628032,21.1096921 L29.9628032,17.676231 L27.6769003,17.676231 L27.6769003,19.25749 Z M1.06415094,0 C0.478706199,0 0,0.480522208 0,1.06737619 L0,4.39288208 L2.28606469,4.39288208 L2.28606469,2.9197406 C2.28606469,2.5991219 2.54716981,2.33605222 2.86657682,2.33605222 L4.45237197,2.33605222 L4.45237197,0 L1.06415094,0 Z" id="Fill-1-Copy-3"></path>
            </g>
        </g>
    </g>
</svg>