<?xml version="1.0" encoding="UTF-8"?>
<svg width="30px" height="23px" viewBox="0 0 30 23" version="1.1" xmlns="http://www.w3.org/2000/svg" xmlns:xlink="http://www.w3.org/1999/xlink">
    <!-- Generator: Sketch 52.2 (67145) - http://www.bohemiancoding.com/sketch -->
    <title>人体蓝</title>
    <desc>Created with Sketch.</desc>
    <g id="Page-1" stroke="none" stroke-width="1" fill="none" fill-rule="evenodd">
        <g id="人体蓝" fill="#3A7BEF">
            <path d="M3.6,3 L26.4,3 C26.7313708,3 27,3.26862915 27,3.6 L27,18.4 C27,18.7313708 26.7313708,19 26.4,19 L3.6,19 C3.26862915,19 3,18.7313708 3,18.4 L3,3.6 C3,3.26862915 3.26862915,3 3.6,3 Z M12,11 C12,11.9719932 12.4622543,12.836021 13.1789193,13.3842401 C12.7926112,14.0763694 12.2081676,14.51824 11.4255884,14.7098519 C10.1197507,15.0295818 9.00011542,15.9478582 9.00011542,16.9909581 C8.98462634,16.9986556 10.5281249,17.0014383 13.6306111,16.9993064 C18.5630487,17.0016961 21.0194729,16.9979107 20.9998838,16.9879501 C20.9998838,15.945374 19.9061455,15.0275586 18.6305116,14.7079892 C17.8467656,14.5116467 17.2664517,14.0524035 16.8895701,13.3302597 C17.5670603,12.7802179 18,11.9406682 18,11 L12,11 Z M12,10 L18,10 L18,8 C18,6.34314575 16.6568542,5 15,5 C13.3431458,5 12,6.34314575 12,8 L12,10 Z M6.5,10 C6.22385763,10 6,10.2238576 6,10.5 C6,10.7761424 6.22385763,11 6.5,11 L11,11 L11,10 L6.5,10 Z M19,10 L19,11 L23.5,11 C23.7761424,11 24,10.7761424 24,10.5 C24,10.2238576 23.7761424,10 23.5,10 L19,10 Z" id="合并形状" fill-rule="nonzero"></path>
            <path d="M28.8986523,-4.4408921e-14 L25.6714286,-4.4408921e-14 L25.6714286,2.27380632 L27.0962264,2.27380632 C27.4155526,2.27380632 27.6768194,2.52978729 27.6768194,2.84186286 L27.6768194,4.27583036 L29.9627224,4.27583036 L29.9627224,1.03893513 C29.9627224,0.467718325 29.4840162,-4.4408921e-14 28.8986523,-4.4408921e-14 Z M27.6768194,19.357133 C27.6768194,19.6692086 27.4155526,19.9251896 27.0962264,19.9251896 L25.6714286,19.9251896 L25.6714286,22.1989959 L28.8986523,22.1989959 C29.4840162,22.1989959 29.9627224,21.7312776 29.9627224,21.1600608 L29.9627224,17.8180869 L27.6768194,17.8180869 L27.6768194,19.357133 Z M1.06407008,-4.4408921e-14 C0.478706199,-4.4408921e-14 0,0.467718325 0,1.03893513 L0,4.27583036 L2.28598383,4.27583036 L2.28598383,2.84186286 C2.28598383,2.52978729 2.54716981,2.27380632 2.86649596,2.27380632 L4.45229111,2.27380632 L4.45229111,-4.4408921e-14 L1.06407008,-4.4408921e-14 Z M2.28598383,19.357133 L2.28598383,17.8180869 L0,17.8180869 L0,21.1600608 C0,21.7312776 0.478706199,22.1989959 1.06407008,22.1989959 L4.45229111,22.1989959 L4.45229111,19.9251896 L2.86649596,19.9251896 C2.54716981,19.9251896 2.28598383,19.6692086 2.28598383,19.357133 Z" id="Fill-7-Copy-6"></path>
        </g>
    </g>
</svg>