<?xml version="1.0" encoding="UTF-8"?>
<svg width="31px" height="24px" viewBox="0 0 31 24" version="1.1" xmlns="http://www.w3.org/2000/svg" xmlns:xlink="http://www.w3.org/1999/xlink">
    <!-- Generator: Sketch 52.5 (67469) - http://www.bohemiancoding.com/sketch -->
    <title>程小奔</title>
    <desc>Created with Sketch.</desc>
    <g id="Page-1" stroke="none" stroke-width="1" fill="none" fill-rule="evenodd">
        <g id="语句块图标设计" transform="translate(-63.000000, -379.000000)" fill="#FFFFFF">
            <path d="M80.6261497,382.865361 C79.7737569,382.865361 79.0827587,383.732642 79.0827587,384.802522 C79.0827587,385.872402 79.7737569,386.739719 80.6261497,386.739719 C81.4785425,386.739719 82.1695407,385.872402 82.1695407,384.802522 C82.1695407,383.732642 81.4785425,382.865361 80.6261497,382.865361 Z M73.6705643,382.865361 C72.8181347,382.865361 72.1271733,383.732642 72.1271733,384.802522 C72.1271733,385.872402 72.8181347,386.739719 73.6705643,386.739719 C74.5229571,386.739719 75.2139552,385.872402 75.2139552,384.802522 C75.2139552,383.732642 74.5229571,382.865361 73.6705643,382.865361 Z M92.3118977,394.37546 C91.9852868,393.673456 91.4402126,392.836598 90.698209,392.836598 L82.3860564,392.836598 L80.7767038,396.448982 C81.2756233,396.186273 81.8460533,396.036994 82.451577,396.036994 L91.1949971,396.036994 C91.8495419,396.036994 92.4618272,396.186904 92.9845222,396.466802 C92.870936,395.938339 92.6583523,395.12014 92.3118977,394.37546 Z M68.4297965,392.836598 C68.3176066,392.96081 67.9830215,393.426152 67.1683316,395.134283 C66.6556318,396.209239 66.2079382,397.243025 66.2034917,397.253352 C66.1960687,397.270332 66.1867349,397.291617 66.1754167,397.317279 C65.0833941,399.795717 65.3568315,400.501852 65.4666695,400.659253 C65.5110971,400.722865 65.5898101,400.795894 65.8065095,400.795894 L78.5706469,400.795929 C78.5706469,400.795929 78.2123597,399.329885 79.0391028,397.732243 L81.2201715,392.836598 L68.4297965,392.836598 Z M91.5901052,399.052263 C91.3578616,398.844554 91.0294868,398.73473 90.6404788,398.73473 L85.1106192,398.73473 C84.3755608,398.73473 83.7775336,399.269215 83.7775336,399.926126 L83.7775336,400.161108 C83.7775336,400.818055 84.3755608,401.352504 85.1106192,401.352504 L90.6404788,401.352504 C91.0234603,401.352504 91.3606544,401.239495 91.589848,401.034236 C91.8408695,400.809477 91.9735276,400.466913 91.9735276,400.043652 C91.9735276,399.619446 91.840943,399.276636 91.5901052,399.052263 Z M92.8554653,400.043652 C92.8554653,399.381594 92.626676,398.826944 92.1937916,398.439743 C91.7950088,398.083069 91.2579087,397.89451 90.6404788,397.89451 L85.1106192,397.89451 C83.8892457,397.89451 82.8955959,398.805868 82.8955959,399.926126 L82.8955959,400.161108 C82.8955959,401.281331 83.8892457,402.192724 85.1106192,402.192724 L90.6404788,402.192724 C91.2487953,402.192724 91.8004474,401.998738 92.1938651,401.646476 C92.6267128,401.25889 92.8554653,400.70466 92.8554653,400.043652 Z M94,400.043652 C94,400.970694 93.7142522,401.737395 93.1736244,402.260852 C92.6813561,402.737501 91.9786723,403 91.1949971,403 L82.4515402,403 C80.904842,403 79.6465374,401.763897 79.6465374,400.244535 L79.6465374,399.842735 C79.6465374,398.323372 80.904842,397.087269 82.4515402,397.087269 L91.1949971,397.087269 C91.9906519,397.087269 92.6748886,397.342346 93.1737714,397.824877 C93.7142889,398.347739 94,399.114964 94,400.043652 Z M65.891543,401.846168 C66.0555099,402.026115 66.2603399,402.200706 66.4981324,402.359718 C67.0978133,402.760642 67.8003502,403 68.3773947,403 L79.7190033,403 C79.3040516,402.69311 79.0279683,402.299047 78.7840391,401.846203 L69.2923315,401.846168 L65.891543,401.846168 Z M84.7748949,383.082802 C84.7748949,382.230575 84.0429601,381.533262 83.148418,381.533262 L71.239356,381.533262 C70.3447772,381.533262 69.6128791,382.230575 69.6128791,383.082802 L69.6128791,387.352694 C69.6128791,388.204957 70.3447772,388.902199 71.239356,388.902199 L83.148418,388.902199 C84.0429601,388.902199 84.7748949,388.204957 84.7748949,387.352694 L84.7748949,383.082802 Z M85.6411047,382.646448 L85.6411047,391.779776 L68.6556093,391.779776 L68.6556093,382.661152 L68.6556093,382.655236 L68.6556093,382.646448 C68.6556093,382.646273 68.655646,382.646098 68.655646,382.645923 L68.659137,380.340325 C68.7358288,379.589939 69.5210474,379 70.4791257,379 C70.6052428,379 70.7283466,379.010223 70.8472612,379.029653 C70.9032275,379.038825 71.0148661,379.064312 71.0148661,379.064312 C71.2244365,379.115705 74.3147095,380.70064 74.3147095,380.70064 L74.250916,380.706486 L80.0183476,380.706486 L79.9746917,380.70064 C79.9746917,380.70064 83.0650014,379.115705 83.2745351,379.064312 C83.2745351,379.064312 83.3861737,379.038825 83.44214,379.029653 C83.5610546,379.010223 83.6841952,379 83.8102755,379 C84.7683538,379 85.5536091,379.589939 85.630301,380.340325 L85.6335347,382.486317 C85.6381282,382.539215 85.6411047,382.592499 85.6411047,382.646448 Z M65.8269411,402.787039 C64.2941701,402.77104 63,401.570471 63,399.894443 C63,398.21838 63.9433794,397.074876 65.2002141,396.8024 C65.1499436,396.916809 65.1210602,396.983502 65.1198843,396.986163 L65.0934996,397.046238 C64.3026955,398.841123 64.0538788,399.84627 64.3310277,400.821625 C64.6081767,401.79698 65.1486942,402.338537 65.8269411,402.787039 Z" id="程小奔"></path>
        </g>
    </g>
</svg>