<?xml version="1.0" encoding="UTF-8"?>
<svg width="23px" height="23px" viewBox="0 0 23 23" version="1.1" xmlns="http://www.w3.org/2000/svg" xmlns:xlink="http://www.w3.org/1999/xlink">
    <!-- Generator: Sketch 52.2 (67145) - http://www.bohemiancoding.com/sketch -->
    <title>扩展</title>
    <desc>Created with Sketch.</desc>
    <g id="Page-1" stroke="none" stroke-width="1" fill="none" fill-rule="evenodd">
        <g id="语句块图标设计" transform="translate(-67.000000, -766.000000)" fill="#FFFFFF" fill-rule="nonzero">
            <path d="M87.2619048,776.952381 L85.6190476,776.952381 L85.6190476,772.571429 C85.6190476,771.36119 84.6388095,770.380952 83.4285714,770.380952 L79.047619,770.380952 L79.047619,768.738095 C79.047619,767.226667 77.8209524,766 76.3095238,766 C74.7980952,766 73.5714286,767.226667 73.5714286,768.738095 L73.5714286,770.380952 L69.1904762,770.380952 C67.9802381,770.380952 67.0109524,771.36119 67.0109524,772.571429 L67.0054762,776.733333 L68.6428571,776.733333 C70.2747619,776.733333 71.6,778.058571 71.6,779.690476 C71.6,781.322381 70.2747619,782.647619 68.6428571,782.647619 L67.0054762,782.647619 L67,786.809524 C67,788.019762 67.9802381,789 69.1904762,789 L73.352381,789 L73.352381,787.357143 C73.352381,785.725238 74.677619,784.4 76.3095238,784.4 C77.9414286,784.4 79.2666667,785.725238 79.2666667,787.357143 L79.2666667,789 L83.4285714,789 C84.6388095,789 85.6190476,788.019762 85.6190476,786.809524 L85.6190476,782.428571 L87.2619048,782.428571 C88.7733333,782.428571 90,781.201905 90,779.690476 C90,778.179048 88.7733333,776.952381 87.2619048,776.952381 Z" id="扩展"></path>
        </g>
    </g>
</svg>