<?xml version="1.0" encoding="UTF-8"?>
<svg width="24px" height="24px" viewBox="0 0 24 24" version="1.1" xmlns="http://www.w3.org/2000/svg" xmlns:xlink="http://www.w3.org/1999/xlink">
    <!-- Generator: Sketch 52.5 (67469) - http://www.bohemiancoding.com/sketch -->
    <title>上传模式广播</title>
    <desc>Created with Sketch.</desc>
    <g id="Page-1" stroke="none" stroke-width="1" fill="none" fill-rule="evenodd">
        <g id="Artboard-Copy" transform="translate(-22.000000, -573.000000)" fill="#0AAD80" fill-rule="nonzero">
            <g id="左侧全部-copy">
                <path d="M44.8025914,586.571429 C44.1416219,586.571429 43.6051829,586.03499 43.6051829,585.37402 C43.6051829,579.777332 39.2202728,575.394817 33.62598,575.394817 C32.9650105,575.394817 32.4285714,574.858378 32.4285714,574.197409 C32.4285714,573.536439 32.9650105,573 33.62598,573 C40.5637652,573 46,578.436235 46,585.37402 C46,586.03499 45.463561,586.571429 44.8025914,586.571429 Z M39.8223298,586.571429 C39.1613603,586.571429 38.6249212,586.03499 38.6249212,585.37402 C38.6249212,582.569689 36.4288739,580.373642 33.6269379,580.373642 C32.9635736,580.373642 32.4295294,579.837203 32.4295294,579.176233 C32.4295294,578.515264 32.9635736,577.978825 33.6269379,577.978825 C37.7723663,577.978825 41.0197383,581.228592 41.0197383,585.37402 C41.0197383,586.03499 40.4832993,586.571429 39.8223298,586.571429 Z M29.4285714,597 C25.3258847,597 22,593.674115 22,589.571429 C22,585.468742 25.3258847,582.142857 29.4285714,582.142857 C33.5312581,582.142857 36.8571429,585.468742 36.8571429,589.571429 C36.8571429,593.674115 33.5312581,597 29.4285714,597 Z M33.0322633,590.118982 C33.4966525,590.118982 33.7307047,589.553277 33.4019171,589.224682 L29.7982566,585.597073 C29.5939253,585.393568 29.2632801,585.393568 29.0589489,585.597073 L25.4552883,589.224682 C25.1265007,589.553277 25.3605529,590.118982 25.8230846,590.118982 L27.5524702,590.118982 L27.5524702,593.789533 C27.5524702,594.041579 27.7568014,594.245084 28.0057141,594.245084 L30.8514914,594.245084 C31.1022616,594.245084 31.3047353,594.041579 31.3047353,593.789533 L31.3047353,590.118982 L33.0322633,590.118982 Z" id="上传模式广播"></path>
            </g>
        </g>
    </g>
</svg>