<?xml version="1.0" encoding="UTF-8"?>
<svg width="35px" height="20px" viewBox="0 0 35 20" version="1.1" xmlns="http://www.w3.org/2000/svg" xmlns:xlink="http://www.w3.org/1999/xlink">
    <!-- Generator: Sketch 52.5 (67469) - http://www.bohemiancoding.com/sketch -->
    <title>icon/ranger</title>
    <desc>Created with Sketch.</desc>
    <g id="Page-1" stroke="none" stroke-width="1" fill="none" fill-rule="evenodd">
        <g id="Artboard" transform="translate(-31.000000, -34.000000)" fill="#FFFFFF">
            <path d="M49.6331827,47.4453846 L50.40338,49.9446924 L40.8735586,49.9446924 C40.3175321,49.9446924 39.8667418,49.4755869 39.8667418,48.8969278 L39.8667418,46.9982573 C39.8667418,46.4195982 40.3175321,45.9504927 40.8735586,45.9504927 L49.4415903,45.9504927 L49.4415903,46.2448864 C49.4415903,46.6542691 49.5060492,47.0581151 49.6331827,47.4453846 Z M57.6535249,44.7891231 C57.656477,44.3752502 58.019938,44.0832198 58.4129845,44.0832198 C58.5474171,44.083186 58.6852559,44.1173519 58.813395,44.1925033 L63.4313025,46.9002499 C63.6917656,47.0529835 63.8751181,47.2979515 63.9394796,47.5793472 L64.8748954,51.6129458 C65.0090684,52.1602412 64.4338372,52.8079072 63.7853234,52.8079072 L63.7845124,52.8079072 L60.3618024,52.621818 C59.8989119,52.5996035 59.4968146,52.3164184 59.3456104,51.906124 L57.7179838,47.07351 C57.6619594,46.9215192 57.633931,46.7617296 57.6350664,46.6009272 L57.6535249,44.7891231 Z M53.9735311,53.7548623 L64.007215,53.9994251 C64.0229485,53.9997965 64.038682,53.9999991 64.0543183,53.9999991 C65.288509,53.9999991 66.2162688,52.8139167 65.9560004,51.5498807 L65.0880929,47.3348182 C64.9778284,46.7993053 64.6639037,46.3330694 64.2178822,46.0424232 L58.4472415,42.2819491 C58.1375989,42.0801611 57.7796203,41.9731733 57.4142778,41.9731733 L52.3612163,41.9731733 C51.2862424,41.9731733 50.414799,42.8800544 50.414799,43.9988179 L50.414799,46.2448864 C50.414799,46.5448168 50.4627782,46.8426541 50.556855,47.126143 L52.1791938,52.3907257 C52.4446527,53.1909904 53.1602855,53.7350448 53.9735311,53.7548623 Z M45.275576,50.8607564 L46.3992752,50.8607564 L46.5412014,51.5498807 C46.8047788,52.8299192 45.8499638,54.0300799 44.592416,53.9994251 L34.5587321,53.7548623 C33.7454865,53.7350448 33.0298537,53.1909904 32.7644273,52.3907257 L31.1420236,47.126143 C31.0480116,46.8426541 31,46.5448168 31,46.2448864 L31,43.9988179 C31,42.8800544 31.8714435,41.9731733 32.9464173,41.9731733 L37.9994788,41.9731733 C38.3648538,41.9731733 38.7228,42.0801611 39.0324749,42.2819491 L43.2563303,45.0344625 L40.8735586,45.0344625 C40.8610367,45.0344625 40.8486769,45.0352052 40.8361874,45.0354415 L39.398596,44.1925033 C38.8958689,43.8977045 38.2427161,44.2336914 38.238726,44.7891231 L38.2202999,46.6009272 C38.2190996,46.7617296 38.2471604,46.9215192 38.3031848,47.07351 L39.930779,51.906124 C40.0820156,52.3164184 40.484113,52.5996035 40.9470035,52.621818 L44.369681,52.8079072 C45.0184867,52.8084474 45.5943019,52.1604775 45.4600639,51.6129458 L45.275576,50.8607564 Z M58.964437,40.6976925 L58.964437,41.4239873 L58.9637558,41.4235485 C58.4987242,41.120512 57.9629404,40.9603511 57.4142778,40.9603511 L52.3612163,40.9603511 C51.183277,40.9603511 50.1661766,41.6901233 49.7050703,42.7379892 L48.6970208,42.7379892 L48.6970208,40.0948269 L49.7075034,40.0948269 C50.4088948,40.0948269 50.992009,39.5581999 51.0979914,38.8587786 L57.1974469,38.8587786 C58.1733481,38.8587786 58.964437,39.6820681 58.964437,40.6976925 Z M42.775403,40.7644712 C42.9872056,40.9551857 43.2565898,41.0621397 43.5361602,41.0675414 L43.5361602,42.7379892 L41.8651609,42.7379892 L41.8651609,40.0948269 L42.3906936,40.0948269 C42.4465233,40.354312 42.5809883,40.5894218 42.775403,40.7644712 Z M47.3193466,41.0680478 C47.4819049,41.0680478 47.6414138,41.0335443 47.7886927,40.9681836 L47.7886927,45.0344625 L44.4444883,45.0344625 L44.4444883,41.0680478 L47.3193466,41.0680478 Z M47.3489971,37.8718845 C46.6285631,37.8718845 46.0445406,37.2640561 46.0445406,36.5142976 C46.0445406,35.764539 46.6285631,35.1567443 47.3489971,35.1567443 C48.0694634,35.1567443 48.6534859,35.764539 48.6534859,36.5142976 C48.6534859,37.2640561 48.0694634,37.8718845 47.3489971,37.8718845 Z M43.2976592,37.8718845 C42.5772253,37.8718845 41.9932028,37.2640561 41.9932028,36.5142976 C41.9932028,35.764539 42.5772253,35.1567443 43.2976592,35.1567443 C44.0180931,35.1567443 44.6021156,35.764539 44.6021156,36.5142976 C44.6021156,37.2640561 44.0180931,37.8718845 43.2976592,37.8718845 Z M49.7075358,34 L41.7660234,34 C41.5269709,34 41.3314209,34.2035435 41.3314209,34.4523264 L41.3314209,38.6296782 C41.3314209,38.8784611 41.5270034,39.0820046 41.7660234,39.0820046 L43.2292751,39.0820046 L43.3373012,39.8561722 C43.3532619,39.9704523 43.4473711,40.0552255 43.5583494,40.0552255 L47.3193466,40.0552255 C47.4302924,40.0552255 47.5244341,39.9704523 47.5403623,39.8561722 L47.6483885,39.0820046 L49.7075034,39.0820046 C49.9465558,39.0820046 50.1421059,38.8784611 50.1421059,38.6297119 L50.1421059,34.4522927 C50.1421059,34.2035435 49.9465558,34 49.7075358,34 Z" id="icon/ranger"></path>
        </g>
    </g>
</svg>