<?xml version="1.0" encoding="UTF-8"?>
<svg width="24px" height="14px" viewBox="0 0 24 14" version="1.1" xmlns="http://www.w3.org/2000/svg" xmlns:xlink="http://www.w3.org/1999/xlink">
    <!-- Generator: Sketch 63.1 (92452) - https://sketch.com -->
    <title>6739B6</title>
    <desc>Created with Sketch.</desc>
    <g id="积木块图标" stroke="none" stroke-width="1" fill="none" fill-rule="evenodd">
        <g id="画板" transform="translate(-254.000000, -35.000000)" fill="#6739B6">
            <path d="M276.75,35 C277.440356,35 278,35.5596441 278,36.25 L278,47.75 C278,48.4403559 277.440356,49 276.75,49 L255.25,49 C254.559644,49 254,48.4403559 254,47.75 L254,36.25 C254,35.5596441 254.559644,35 255.25,35 L276.75,35 Z M270.933333,36.9723757 L261.066667,36.9723757 C260.873367,36.9723757 260.712092,37.1094885 260.674793,37.2917617 L260.666667,37.3723757 L260.666667,46.6276243 C260.666667,46.820924 260.803779,46.9821992 260.986053,47.0194977 L261.066667,47.0276243 L270.933333,47.0276243 C271.126633,47.0276243 271.287908,46.8905115 271.325207,46.7082383 L271.333333,46.6276243 L271.333333,37.3723757 C271.333333,37.1514618 271.154247,36.9723757 270.933333,36.9723757 Z M273.690133,42.9894022 C273.552062,42.9894022 273.440133,43.101331 273.440133,43.2394022 L273.440133,43.2394022 L273.440133,45.5395075 C273.440133,45.5825083 273.451224,45.6247822 273.472335,45.6622441 C273.540121,45.7825303 273.692583,45.8250905 273.812869,45.7573049 L273.812869,45.7573049 L275.853649,44.6072522 C275.893421,44.5848392 275.926297,44.5519636 275.94871,44.5121915 C276.016495,44.3919053 275.973935,44.239443 275.853649,44.1716574 L275.853649,44.1716574 L273.812869,43.0216048 C273.775408,43.0004936 273.733134,42.9894022 273.690133,42.9894022 Z M257.369399,39.9116022 C256.26483,39.9116022 255.369399,40.7946649 255.369399,41.8839779 C255.369399,42.9732909 256.26483,43.8563536 257.369399,43.8563536 C258.473969,43.8563536 259.369399,42.9732909 259.369399,41.8839779 C259.369399,40.7946649 258.473969,39.9116022 257.369399,39.9116022 Z M275.590133,37.9392265 L273.690133,37.9392265 C273.552062,37.9392265 273.440133,38.0511553 273.440133,38.1892265 L273.440133,38.1892265 L273.440133,40.0560773 C273.440133,40.1941485 273.552062,40.3060773 273.690133,40.3060773 L273.690133,40.3060773 L275.590133,40.3060773 C275.728204,40.3060773 275.840133,40.1941485 275.840133,40.0560773 L275.840133,40.0560773 L275.840133,38.1892265 C275.840133,38.0511553 275.728204,37.9392265 275.590133,37.9392265 L275.590133,37.9392265 Z" id="6739B6"></path>
        </g>
    </g>
</svg>