<?xml version="1.0" encoding="UTF-8"?>
<svg width="30px" height="18px" viewBox="0 0 30 18" version="1.1" xmlns="http://www.w3.org/2000/svg" xmlns:xlink="http://www.w3.org/1999/xlink">
    <!-- Generator: Sketch 63.1 (92452) - https://sketch.com -->
    <title>光环板pro图标-白</title>
    <desc>Created with Sketch.</desc>
    <g id="积木块图标" stroke="none" stroke-width="1" fill="none" fill-rule="evenodd">
        <path d="M28.4375,0 C29.3004449,-1.5852041e-16 30,0.699555078 30,1.5625 L30,16.4375 C30,17.3004449 29.3004449,18 28.4375,18 L1.5625,18 C0.699555078,18 1.05680274e-16,17.3004449 0,16.4375 L0,1.5625 C-1.05680274e-16,0.699555078 0.699555078,1.5852041e-16 1.5625,0 L28.4375,0 Z M21.1666667,2.5359116 L8.83333333,2.5359116 C8.58787344,2.5359116 8.38372496,2.71278676 8.341389,2.94603597 L8.33333333,3.0359116 L8.33333333,14.9640884 C8.33333333,15.2095483 8.51020849,15.4136968 8.7434577,15.4560327 L8.83333333,15.4640884 L21.1666667,15.4640884 C21.4121266,15.4640884 21.616275,15.2872132 21.658611,15.053964 L21.6666667,14.9640884 L21.6666667,3.0359116 C21.6666667,2.75976923 21.442809,2.5359116 21.1666667,2.5359116 Z M24.612666,10.2732652 C24.440077,10.2732652 24.300166,10.4131762 24.300166,10.5857652 L24.300166,10.5857652 L24.300166,13.5585472 C24.300166,13.613584 24.3147011,13.6676446 24.3423011,13.7152606 C24.4288516,13.864579 24.6200611,13.9154625 24.7693794,13.828912 L24.7693794,13.828912 L27.3337277,12.342521 C27.3808726,12.3151941 27.4200523,12.2760144 27.4473791,12.2288696 C27.5339296,12.0795513 27.4830461,11.8883418 27.3337277,11.8017913 L27.3337277,11.8017913 L24.7693794,10.3154003 C24.7217634,10.2878003 24.6677028,10.2732652 24.612666,10.2732652 Z M4.21174914,6.31491713 C2.83103726,6.31491713 1.71174914,7.45028342 1.71174914,8.85082873 C1.71174914,10.251374 2.83103726,11.3867403 4.21174914,11.3867403 C5.59246101,11.3867403 6.71174914,10.251374 6.71174914,8.85082873 C6.71174914,7.45028342 5.59246101,6.31491713 4.21174914,6.31491713 Z M26.987666,3.77900552 L24.612666,3.77900552 C24.440077,3.77900552 24.300166,3.91891654 24.300166,4.09150552 L24.300166,4.09150552 L24.300166,6.50959945 C24.300166,6.68218843 24.440077,6.82209945 24.612666,6.82209945 L24.612666,6.82209945 L26.987666,6.82209945 C27.160255,6.82209945 27.300166,6.68218843 27.300166,6.50959945 L27.300166,6.50959945 L27.300166,4.09150552 C27.300166,3.91891654 27.160255,3.77900552 26.987666,3.77900552 L26.987666,3.77900552 Z" id="光环板pro图标-白" fill="#FFFFFF"></path>
    </g>
</svg>