<?xml version="1.0" encoding="UTF-8"?>
<svg width="24px" height="15px" viewBox="0 0 24 15" version="1.1" xmlns="http://www.w3.org/2000/svg" xmlns:xlink="http://www.w3.org/1999/xlink">
    <!-- Generator: Sketch 52.6 (67491) - http://www.bohemiancoding.com/sketch -->
    <title>感知</title>
    <desc>Created with Sketch.</desc>
    <g id="V3" stroke="none" stroke-width="1" fill="none" fill-rule="evenodd">
        <g id="画板" transform="translate(-366.000000, -412.000000)" fill="#FF6F00" fill-rule="nonzero">
            <g id="感知" transform="translate(366.000000, 412.003906)">
                <path d="M22.75,0 C23.440356,0 24,0.5596441 24,1.25 L24,12.75 C24,13.440356 23.440356,14 22.75,14 L1.25,14 C0.559644,14 0,13.440356 0,12.75 L0,1.25 C0,0.5596441 0.559644,0 1.25,0 L22.75,0 Z M16.933333,1.972376 L7.066667,1.972376 C6.873367,1.972376 6.712092,2.109488 6.674793,2.291762 L6.666667,2.372376 L6.666667,11.627624 C6.666667,11.820924 6.803779,11.982199 6.986053,12.019498 L7.066667,12.027624 L16.933333,12.027624 C17.126633,12.027624 17.287908,11.890512 17.325207,11.708238 L17.333333,11.627624 L17.333333,2.372376 C17.333333,2.151462 17.154247,1.972376 16.933333,1.972376 Z M19.690133,7.989402 C19.552062,7.989402 19.440133,8.101331 19.440133,8.239402 L19.440133,10.539507 C19.440133,10.582508 19.451224,10.624782 19.472335,10.662244 C19.540121,10.78253 19.692583,10.82509 19.812869,10.757305 L21.853649,9.607252 C21.893421,9.584839 21.926297,9.551964 21.94871,9.512191 C22.016495,9.391905 21.973935,9.239443 21.853649,9.171657 L19.812869,8.021605 C19.775408,8.000494 19.733134,7.989402 19.690133,7.989402 Z M3.369399,4.911602 C2.26483,4.911602 1.369399,5.794665 1.369399,6.883978 C1.369399,7.973291 2.26483,8.856354 3.369399,8.856354 C4.473969,8.856354 5.369399,7.973291 5.369399,6.883978 C5.369399,5.794665 4.473969,4.911602 3.369399,4.911602 Z M21.590133,2.939227 L19.690133,2.939227 C19.552062,2.939227 19.440133,3.051155 19.440133,3.189227 L19.440133,5.056077 C19.440133,5.194149 19.552062,5.306077 19.690133,5.306077 L21.590133,5.306077 C21.728204,5.306077 21.840133,5.194149 21.840133,5.056077 L21.840133,3.189227 C21.840133,3.051155 21.728204,2.939227 21.590133,2.939227 Z" id="05A6F"></path>
            </g>
        </g>
    </g>
</svg>