<?xml version="1.0" encoding="UTF-8"?>
<svg width="30px" height="30px" viewBox="0 0 30 30" version="1.1" xmlns="http://www.w3.org/2000/svg" xmlns:xlink="http://www.w3.org/1999/xlink">
    <!-- Generator: Sketch 63.1 (92452) - https://sketch.com -->
    <title>光环板Pro-图标</title>
    <desc>Created with Sketch.</desc>
    <g id="积木块图标" stroke="none" stroke-width="1" fill="none" fill-rule="evenodd">
        <g id="Group-3-Copy-4" transform="translate(-13.000000, -12.000000)" fill="#FFFFFF">
            <g id="编组" transform="translate(13.000000, 12.000000)">
                <path d="M28.75,7 C29.4403559,7 30,7.55964406 30,8.25 L30,21.05 C30,21.7403559 29.4403559,22.3 28.75,22.3 L1.25,22.3 C0.559644063,22.3 8.45442189e-17,21.7403559 0,21.05 L0,8.25 C-8.45442189e-17,7.55964406 0.559644063,7 1.25,7 L28.75,7 Z M21.2666667,8.3 L8.73333333,8.3 C8.54003367,8.3 8.37875842,8.4371128 8.34145991,8.61938605 L8.33333333,8.7 L8.33333333,20.9 C8.33333333,21.0932997 8.47044613,21.2545749 8.65271938,21.2918734 L8.73333333,21.3 L21.2666667,21.3 C21.4599663,21.3 21.6212416,21.1628872 21.6585401,20.980614 L21.6666667,20.9 L21.6666667,8.7 C21.6666667,8.4790861 21.4875806,8.3 21.2666667,8.3 Z M24.550166,16.034304 C24.4120948,16.034304 24.300166,16.1462328 24.300166,16.284304 L24.300166,16.284304 L24.300166,19.4941435 C24.300166,19.538377 24.3119021,19.5818186 24.3341765,19.6200345 C24.4037042,19.7393222 24.5567693,19.7796606 24.676057,19.710133 L24.676057,19.710133 L27.4295958,18.1052132 C27.4669065,18.0834664 27.4979475,18.0524254 27.5196943,18.0151147 C27.589222,17.895827 27.5488835,17.7427619 27.4295958,17.6732342 L27.4295958,17.6732342 L24.676057,16.0683145 C24.6378411,16.0460401 24.5943995,16.034304 24.550166,16.034304 Z M4.21174914,12.1 C2.83103726,12.1 1.71174914,13.2416739 1.71174914,14.65 C1.71174914,16.0583261 2.83103726,17.2 4.21174914,17.2 C5.59246101,17.2 6.71174914,16.0583261 6.71174914,14.65 C6.71174914,13.2416739 5.59246101,12.1 4.21174914,12.1 Z M27.050166,9.55 L24.550166,9.55 C24.4120948,9.55 24.300166,9.66192881 24.300166,9.8 L24.300166,9.8 L24.300166,12.36 C24.300166,12.4980712 24.4120948,12.61 24.550166,12.61 L24.550166,12.61 L27.050166,12.61 C27.1882372,12.61 27.300166,12.4980712 27.300166,12.36 L27.300166,12.36 L27.300166,9.8 C27.300166,9.66192881 27.1882372,9.55 27.050166,9.55 L27.050166,9.55 Z" id="光环板Pro-图标"></path>
            </g>
        </g>
    </g>
</svg>