<?xml version="1.0" encoding="UTF-8"?>
<svg width="24px" height="14px" viewBox="0 0 24 14" version="1.1" xmlns="http://www.w3.org/2000/svg" xmlns:xlink="http://www.w3.org/1999/xlink">
    <!-- Generator: Sketch 63.1 (92452) - https://sketch.com -->
    <title>00D7B0</title>
    <desc>Created with Sketch.</desc>
    <g id="积木块图标" stroke="none" stroke-width="1" fill="none" fill-rule="evenodd">
        <g id="画板" transform="translate(-180.000000, -227.000000)" fill="#00D7B0">
            <path d="M202.75,227 C203.440356,227 204,227.559644 204,228.25 L204,239.75 C204,240.440356 203.440356,241 202.75,241 L181.25,241 C180.559644,241 180,240.440356 180,239.75 L180,228.25 C180,227.559644 180.559644,227 181.25,227 L202.75,227 Z M196.933333,228.972376 L187.066667,228.972376 C186.873367,228.972376 186.712092,229.109488 186.674793,229.291762 L186.666667,229.372376 L186.666667,238.627624 C186.666667,238.820924 186.803779,238.982199 186.986053,239.019498 L187.066667,239.027624 L196.933333,239.027624 C197.126633,239.027624 197.287908,238.890512 197.325207,238.708238 L197.333333,238.627624 L197.333333,229.372376 C197.333333,229.151462 197.154247,228.972376 196.933333,228.972376 Z M199.690133,234.989402 C199.552062,234.989402 199.440133,235.101331 199.440133,235.239402 L199.440133,235.239402 L199.440133,237.539507 C199.440133,237.582508 199.451224,237.624782 199.472335,237.662244 C199.540121,237.78253 199.692583,237.82509 199.812869,237.757305 L199.812869,237.757305 L201.853649,236.607252 C201.893421,236.584839 201.926297,236.551964 201.94871,236.512191 C202.016495,236.391905 201.973935,236.239443 201.853649,236.171657 L201.853649,236.171657 L199.812869,235.021605 C199.775408,235.000494 199.733134,234.989402 199.690133,234.989402 Z M183.369399,231.911602 C182.26483,231.911602 181.369399,232.794665 181.369399,233.883978 C181.369399,234.973291 182.26483,235.856354 183.369399,235.856354 C184.473969,235.856354 185.369399,234.973291 185.369399,233.883978 C185.369399,232.794665 184.473969,231.911602 183.369399,231.911602 Z M201.590133,229.939227 L199.690133,229.939227 C199.552062,229.939227 199.440133,230.051155 199.440133,230.189227 L199.440133,230.189227 L199.440133,232.056077 C199.440133,232.194149 199.552062,232.306077 199.690133,232.306077 L199.690133,232.306077 L201.590133,232.306077 C201.728204,232.306077 201.840133,232.194149 201.840133,232.056077 L201.840133,232.056077 L201.840133,230.189227 C201.840133,230.051155 201.728204,229.939227 201.590133,229.939227 L201.590133,229.939227 Z" id="00D7B0"></path>
        </g>
    </g>
</svg>