<?xml version="1.0" encoding="UTF-8"?>
<svg width="24px" height="14px" viewBox="0 0 24 14" version="1.1" xmlns="http://www.w3.org/2000/svg" xmlns:xlink="http://www.w3.org/1999/xlink">
    <!-- Generator: Sketch 63.1 (92452) - https://sketch.com -->
    <title>A6D200</title>
    <desc>Created with Sketch.</desc>
    <g id="积木块图标" stroke="none" stroke-width="1" fill="none" fill-rule="evenodd">
        <g id="画板" transform="translate(-106.000000, -227.000000)" fill="#A6D200">
            <path d="M128.75,227 C129.440356,227 130,227.559644 130,228.25 L130,239.75 C130,240.440356 129.440356,241 128.75,241 L107.25,241 C106.559644,241 106,240.440356 106,239.75 L106,228.25 C106,227.559644 106.559644,227 107.25,227 L128.75,227 Z M122.933333,228.972376 L113.066667,228.972376 C112.873367,228.972376 112.712092,229.109488 112.674793,229.291762 L112.666667,229.372376 L112.666667,238.627624 C112.666667,238.820924 112.803779,238.982199 112.986053,239.019498 L113.066667,239.027624 L122.933333,239.027624 C123.126633,239.027624 123.287908,238.890512 123.325207,238.708238 L123.333333,238.627624 L123.333333,229.372376 C123.333333,229.151462 123.154247,228.972376 122.933333,228.972376 Z M125.690133,234.989402 C125.552062,234.989402 125.440133,235.101331 125.440133,235.239402 L125.440133,235.239402 L125.440133,237.539507 C125.440133,237.582508 125.451224,237.624782 125.472335,237.662244 C125.540121,237.78253 125.692583,237.82509 125.812869,237.757305 L125.812869,237.757305 L127.853649,236.607252 C127.893421,236.584839 127.926297,236.551964 127.94871,236.512191 C128.016495,236.391905 127.973935,236.239443 127.853649,236.171657 L127.853649,236.171657 L125.812869,235.021605 C125.775408,235.000494 125.733134,234.989402 125.690133,234.989402 Z M109.369399,231.911602 C108.26483,231.911602 107.369399,232.794665 107.369399,233.883978 C107.369399,234.973291 108.26483,235.856354 109.369399,235.856354 C110.473969,235.856354 111.369399,234.973291 111.369399,233.883978 C111.369399,232.794665 110.473969,231.911602 109.369399,231.911602 Z M127.590133,229.939227 L125.690133,229.939227 C125.552062,229.939227 125.440133,230.051155 125.440133,230.189227 L125.440133,230.189227 L125.440133,232.056077 C125.440133,232.194149 125.552062,232.306077 125.690133,232.306077 L125.690133,232.306077 L127.590133,232.306077 C127.728204,232.306077 127.840133,232.194149 127.840133,232.056077 L127.840133,232.056077 L127.840133,230.189227 C127.840133,230.051155 127.728204,229.939227 127.590133,229.939227 L127.590133,229.939227 Z" id="A6D200"></path>
        </g>
    </g>
</svg>