<?xml version="1.0" encoding="UTF-8"?>
<svg width="24px" height="14px" viewBox="0 0 24 14" version="1.1" xmlns="http://www.w3.org/2000/svg" xmlns:xlink="http://www.w3.org/1999/xlink">
    <!-- Generator: Sketch 63.1 (92452) - https://sketch.com -->
    <title>AB47BC</title>
    <desc>Created with Sketch.</desc>
    <g id="积木块图标" stroke="none" stroke-width="1" fill="none" fill-rule="evenodd">
        <g id="画板" transform="translate(-106.000000, -35.000000)" fill="#AB47BC">
            <path d="M128.75,35 C129.440356,35 130,35.5596441 130,36.25 L130,47.75 C130,48.4403559 129.440356,49 128.75,49 L107.25,49 C106.559644,49 106,48.4403559 106,47.75 L106,36.25 C106,35.5596441 106.559644,35 107.25,35 L128.75,35 Z M122.933333,36.9723757 L113.066667,36.9723757 C112.873367,36.9723757 112.712092,37.1094885 112.674793,37.2917617 L112.666667,37.3723757 L112.666667,46.6276243 C112.666667,46.820924 112.803779,46.9821992 112.986053,47.0194977 L113.066667,47.0276243 L122.933333,47.0276243 C123.126633,47.0276243 123.287908,46.8905115 123.325207,46.7082383 L123.333333,46.6276243 L123.333333,37.3723757 C123.333333,37.1514618 123.154247,36.9723757 122.933333,36.9723757 Z M125.690133,42.9894022 C125.552062,42.9894022 125.440133,43.101331 125.440133,43.2394022 L125.440133,43.2394022 L125.440133,45.5395075 C125.440133,45.5825083 125.451224,45.6247822 125.472335,45.6622441 C125.540121,45.7825303 125.692583,45.8250905 125.812869,45.7573049 L125.812869,45.7573049 L127.853649,44.6072522 C127.893421,44.5848392 127.926297,44.5519636 127.94871,44.5121915 C128.016495,44.3919053 127.973935,44.239443 127.853649,44.1716574 L127.853649,44.1716574 L125.812869,43.0216048 C125.775408,43.0004936 125.733134,42.9894022 125.690133,42.9894022 Z M109.369399,39.9116022 C108.26483,39.9116022 107.369399,40.7946649 107.369399,41.8839779 C107.369399,42.9732909 108.26483,43.8563536 109.369399,43.8563536 C110.473969,43.8563536 111.369399,42.9732909 111.369399,41.8839779 C111.369399,40.7946649 110.473969,39.9116022 109.369399,39.9116022 Z M127.590133,37.9392265 L125.690133,37.9392265 C125.552062,37.9392265 125.440133,38.0511553 125.440133,38.1892265 L125.440133,38.1892265 L125.440133,40.0560773 C125.440133,40.1941485 125.552062,40.3060773 125.690133,40.3060773 L125.690133,40.3060773 L127.590133,40.3060773 C127.728204,40.3060773 127.840133,40.1941485 127.840133,40.0560773 L127.840133,40.0560773 L127.840133,38.1892265 C127.840133,38.0511553 127.728204,37.9392265 127.590133,37.9392265 L127.590133,37.9392265 Z" id="AB47BC"></path>
        </g>
    </g>
</svg>