<?xml version="1.0" encoding="UTF-8"?>
<svg width="24px" height="14px" viewBox="0 0 24 14" version="1.1" xmlns="http://www.w3.org/2000/svg" xmlns:xlink="http://www.w3.org/1999/xlink">
    <!-- Generator: Sketch 63.1 (92452) - https://sketch.com -->
    <title>9300DB</title>
    <desc>Created with Sketch.</desc>
    <g id="积木块图标" stroke="none" stroke-width="1" fill="none" fill-rule="evenodd">
        <g id="画板" transform="translate(-180.000000, -35.000000)" fill="#9300DB">
            <path d="M202.75,35 C203.440356,35 204,35.5596441 204,36.25 L204,47.75 C204,48.4403559 203.440356,49 202.75,49 L181.25,49 C180.559644,49 180,48.4403559 180,47.75 L180,36.25 C180,35.5596441 180.559644,35 181.25,35 L202.75,35 Z M196.933333,36.9723757 L187.066667,36.9723757 C186.873367,36.9723757 186.712092,37.1094885 186.674793,37.2917617 L186.666667,37.3723757 L186.666667,46.6276243 C186.666667,46.820924 186.803779,46.9821992 186.986053,47.0194977 L187.066667,47.0276243 L196.933333,47.0276243 C197.126633,47.0276243 197.287908,46.8905115 197.325207,46.7082383 L197.333333,46.6276243 L197.333333,37.3723757 C197.333333,37.1514618 197.154247,36.9723757 196.933333,36.9723757 Z M199.690133,42.9894022 C199.552062,42.9894022 199.440133,43.101331 199.440133,43.2394022 L199.440133,43.2394022 L199.440133,45.5395075 C199.440133,45.5825083 199.451224,45.6247822 199.472335,45.6622441 C199.540121,45.7825303 199.692583,45.8250905 199.812869,45.7573049 L199.812869,45.7573049 L201.853649,44.6072522 C201.893421,44.5848392 201.926297,44.5519636 201.94871,44.5121915 C202.016495,44.3919053 201.973935,44.239443 201.853649,44.1716574 L201.853649,44.1716574 L199.812869,43.0216048 C199.775408,43.0004936 199.733134,42.9894022 199.690133,42.9894022 Z M183.369399,39.9116022 C182.26483,39.9116022 181.369399,40.7946649 181.369399,41.8839779 C181.369399,42.9732909 182.26483,43.8563536 183.369399,43.8563536 C184.473969,43.8563536 185.369399,42.9732909 185.369399,41.8839779 C185.369399,40.7946649 184.473969,39.9116022 183.369399,39.9116022 Z M201.590133,37.9392265 L199.690133,37.9392265 C199.552062,37.9392265 199.440133,38.0511553 199.440133,38.1892265 L199.440133,38.1892265 L199.440133,40.0560773 C199.440133,40.1941485 199.552062,40.3060773 199.690133,40.3060773 L199.690133,40.3060773 L201.590133,40.3060773 C201.728204,40.3060773 201.840133,40.1941485 201.840133,40.0560773 L201.840133,40.0560773 L201.840133,38.1892265 C201.840133,38.0511553 201.728204,37.9392265 201.590133,37.9392265 L201.590133,37.9392265 Z" id="9300DB"></path>
        </g>
    </g>
</svg>