<?xml version="1.0" encoding="UTF-8"?>
<svg width="31px" height="18px" viewBox="0 0 31 18" version="1.1" xmlns="http://www.w3.org/2000/svg" xmlns:xlink="http://www.w3.org/1999/xlink">
    <title>icon/mbot</title>
    <g id="Page-1" stroke="none" stroke-width="1" fill="none" fill-rule="evenodd">
        <g id="Artboard" transform="translate(-79.000000, -35.000000)" fill="#FFFFFF">
            <path d="M93.8847961,45.9695283 C93.6293024,45.9102176 93.3723925,46.0603979 93.3105526,46.3046854 C93.1777583,46.82916 92.5721046,47.2098231 91.8704047,47.2098231 C91.1554871,47.2098231 90.5327303,46.8048238 90.4217598,46.2677185 C90.3708135,46.0211183 90.1206214,45.8607268 89.8629127,45.909506 C89.6052402,45.9582852 89.4376587,46.1976984 89.4886049,46.4443342 C89.6892307,47.4153647 90.6909432,48.1201553 91.8704047,48.1201553 C93.0056741,48.1201553 94.0001242,47.4468168 94.2350288,46.5190863 C94.2968687,46.2747632 94.140072,46.0287323 93.8847961,45.9695283 L93.8847961,45.9695283 Z M101.266807,51.5481862 C101.43486,51.8294763 101.624338,52.0918381 101.831573,52.3308243 C101.688466,52.371954 101.537334,52.3941911 101.381082,52.3941911 L84.8482858,52.3941911 C83.9611388,52.3941911 83.2353275,51.6829963 83.2353275,50.8137937 L83.2353275,45.9883853 C83.2353275,45.4700659 83.4935083,45.0080686 83.8899665,44.7194137 C84.3741554,45.051084 84.9624155,45.2463788 85.5966471,45.2463788 L96.3068663,45.2463788 C95.5631167,45.9094348 95.0954863,46.8648816 95.0954863,47.9254297 C95.0954863,49.9230301 96.7541256,51.5481862 98.7928825,51.5481862 L101.266807,51.5481862 Z M101.073916,45.2330722 L98.7928825,45.2330722 C98.4006728,45.2330722 98.0279629,45.3141218 97.6904032,45.4592143 C96.7218439,45.8754566 96.0450179,46.8227557 96.0450179,47.9254297 C96.0450179,49.4123958 97.2752804,50.6178229 98.7928825,50.6178229 L98.8868952,50.6178229 L100.816243,50.6178229 C100.527451,49.8646444 100.380676,49.057172 100.380676,48.215579 C100.380676,47.1585888 100.624042,46.1221635 101.073916,45.2330722 L101.073916,45.2330722 Z M108.93376,48.2392748 C108.93376,47.1376682 108.585126,46.1801222 108.071633,45.6874555 C107.969849,45.5897903 107.861711,45.5099859 107.74838,45.4513868 C107.719112,45.4306085 107.680294,45.412463 107.62982,45.3977688 C107.628549,45.3973774 107.627315,45.3970928 107.626044,45.3967014 C107.545394,45.3666369 107.462565,45.3469259 107.377994,45.3384225 C107.226935,45.3111687 107.08873,45.3011354 106.967047,45.3011354 L106.966975,45.3011354 C106.629088,45.3011354 106.41913,45.3784136 106.41913,45.3784136 L106.418549,45.3794454 C105.645822,45.6222742 105.059087,46.8098049 105.059087,48.2392748 C105.059087,49.6370792 105.62004,50.8039738 106.367421,51.0820617 L106.367385,51.0824531 C106.367385,51.0824531 106.369055,51.0829868 106.371488,51.0837339 C106.410016,51.0978945 106.449088,51.1093155 106.488596,51.1185305 C106.523564,51.1266426 106.55886,51.1330113 106.594446,51.1373875 C106.71395,51.1600871 106.87111,51.1811501 107.042468,51.1811501 C107.203477,51.1811501 107.37705,51.1625421 107.543542,51.109102 C107.546483,51.1081769 107.548844,51.1071451 107.551712,51.1061845 C108.335551,50.879651 108.93376,49.6826563 108.93376,48.2392748 L108.93376,48.2392748 Z M110,48.215579 C110,50.5629596 108.661563,52.5096459 106.907567,52.8780697 C106.901213,52.8795996 106.895875,52.8813074 106.889375,52.8828018 C106.516701,52.969722 106.12845,53 105.768122,53 C105.384773,53 105.033051,52.9657015 104.765683,52.9288058 C104.596068,52.9136846 104.429395,52.8849365 104.266824,52.8415298 C104.261341,52.8402845 104.257601,52.8394306 104.257601,52.8394306 L104.257674,52.8388257 C103.730382,52.6962238 103.244595,52.4098104 102.826531,52.013279 C101.918722,51.1523308 101.330208,49.7720315 101.330208,48.215579 C101.330208,45.8908269 102.643081,43.9595463 104.37213,43.564616 L104.373328,43.5629793 L104.374708,43.5626235 C104.402996,43.5552586 104.866632,43.4372776 105.599233,43.4372776 C105.871467,43.4372776 106.18103,43.4536085 106.518953,43.4979404 C106.660825,43.5083295 106.800555,43.5289299 106.937707,43.5592435 C106.983424,43.569348 107.028851,43.5805199 107.073951,43.5927236 C107.076783,43.5933285 107.079579,43.5938622 107.082375,43.5944314 C107.19527,43.6183763 107.282166,43.647836 107.347601,43.6816363 C107.629457,43.7875559 107.897152,43.9355303 108.146618,44.119333 C109.254108,44.9353089 110,46.4635826 110,48.215579 L110,48.215579 Z M103.804023,42.7509172 L103.942337,42.7139147 C103.991359,42.6997541 104.040707,42.6865542 104.090201,42.6743149 L104.123136,42.6654912 C104.183778,42.6492671 104.74041,42.5069142 105.599233,42.5069142 C105.936031,42.5069142 106.278855,42.5289378 106.618557,42.5723802 C106.847144,42.5908458 107.075548,42.6298052 107.298361,42.6883687 C107.461767,42.723948 107.604365,42.7704502 107.731822,42.8298676 C107.890252,42.8915266 108.045778,42.9641795 108.197927,43.0464033 L108.198254,43.0395365 C108.198254,42.0978233 107.440814,41.3365328 106.510092,41.3364261 C106.502104,41.3364261 106.49426,41.3364973 106.486308,41.336604 L102.81571,41.3876603 L102.81571,42.3199805 C102.81571,42.6922113 102.743884,43.0481111 102.613922,43.3758322 C102.981512,43.1052159 103.380004,42.8965789 103.798395,42.7584244 L103.804023,42.7509172 Z M96.2399426,37.8016216 C95.4189567,37.8016216 94.7533876,38.5584291 94.7533876,39.4919591 C94.7533876,40.425489 95.4189567,41.1822609 96.2399426,41.1822609 C97.0609286,41.1822609 97.7264614,40.425489 97.7264614,39.4919591 C97.7264614,38.5584291 97.0609286,37.8016216 96.2399426,37.8016216 L96.2399426,37.8016216 Z M88.4052986,37.8016216 C87.5843126,37.8016216 86.9187798,38.5584291 86.9187798,39.4919591 C86.9187798,40.425489 87.5843126,41.1822609 88.4052986,41.1822609 C89.2262845,41.1822609 89.8918536,40.425489 89.8918536,39.4919591 C89.8918536,38.5584291 89.2262845,37.8016216 88.4052986,37.8016216 L88.4052986,37.8016216 Z M103.776317,37.280527 L102.81571,37.280527 L102.81571,40.3913329 L105.436772,40.3548641 C105.436772,40.3532274 105.436881,40.3516264 105.436881,40.3499541 L105.436881,38.9076045 C105.436881,38.0089778 104.693422,37.280527 103.776317,37.280527 L103.776317,37.280527 Z M98.7875446,39.7020905 C98.7875446,37.9697694 97.3542961,36.5654541 95.586284,36.5654541 C93.8182719,36.5654541 92.3850234,37.9697694 92.3850234,39.7020905 C92.3850234,41.4344115 93.8182719,42.8386913 95.586284,42.8386913 C97.3542961,42.8386913 98.7875446,41.4344115 98.7875446,39.7020905 L98.7875446,39.7020905 Z M90.8286034,39.5521593 C90.8286034,37.8198382 89.3953548,36.4155229 87.6273427,36.4155229 C85.8593306,36.4155229 84.4260821,37.8198382 84.4260821,39.5521593 C84.4260821,41.2844803 85.8593306,42.6887957 87.6273427,42.6887957 C89.3953548,42.6887957 90.8286034,41.2844803 90.8286034,39.5521593 L90.8286034,39.5521593 Z M101.828886,36.9595305 L101.828886,42.3199805 C101.828886,43.3976779 100.928957,44.2794755 99.8290192,44.2794755 L85.5966471,44.2794755 C84.4967459,44.2794755 83.5968169,43.3976779 83.5968169,42.3199805 L83.5968169,36.9595305 C83.5968169,35.8817976 84.4967459,35 85.5966471,35 L99.8290192,35 C100.928957,35 101.828886,35.8817976 101.828886,36.9595305 L101.828886,36.9595305 Z M81.7478283,45.2330722 L82.1741353,45.2330722 L82.1741353,50.6178229 L81.7478283,50.6178229 C80.2302625,50.6178229 79,49.4123958 79,47.9254653 L79,47.9254297 C79,46.4384992 80.2302625,45.2330722 81.7478283,45.2330722 L81.7478283,45.2330722 Z" id="icon/mbot"></path>
        </g>
    </g>
</svg>