<?xml version="1.0" encoding="UTF-8"?>
<svg width="24px" height="14px" viewBox="0 0 24 14" version="1.1" xmlns="http://www.w3.org/2000/svg" xmlns:xlink="http://www.w3.org/1999/xlink">
    <!-- Generator: Sketch 63.1 (92452) - https://sketch.com -->
    <title>掌上扩展板-白</title>
    <desc>Created with Sketch.</desc>
    <g id="积木块图标" stroke="none" stroke-width="1" fill="none" fill-rule="evenodd">
        <g id="画板备份-4" transform="translate(-41.000000, -40.000000)" fill="#FFFFFF">
            <g id="掌上扩展板-白" transform="translate(41.000000, 40.000000)">
                <path d="M22.75,0 C23.4403559,-1.26816328e-16 24,0.559644063 24,1.25 L24,12.75 C24,13.4403559 23.4403559,14 22.75,14 L1.25,14 C0.559644063,14 8.45442189e-17,13.4403559 0,12.75 L0,1.25 C-8.45442189e-17,0.559644063 0.559644063,1.26816328e-16 1.25,0 L22.75,0 Z M13,10 C12.4477153,10 12,10.4477153 12,11 C12,11.5522847 12.4477153,12 13,12 C13.5522847,12 14,11.5522847 14,11 C14,10.4477153 13.5522847,10 13,10 Z M3,10 C2.44771525,10 2,10.4477153 2,11 C2,11.5522847 2.44771525,12 3,12 C3.55228475,12 4,11.5522847 4,11 C4,10.4477153 3.55228475,10 3,10 Z M18.5,4 L17.5,4 C17.2545401,4 17.0503916,4.17687516 17.0080557,4.41012437 L17,4.5 L17,9.5 C17,9.74545989 17.1768752,9.94960837 17.4101244,9.99194433 L17.5,10 L18.5,10 C18.7454599,10 18.9496084,9.82312484 18.9919443,9.58987563 L19,9.5 L19,4.5 C19,4.22385763 18.7761424,4 18.5,4 Z M3,2 C2.44771525,2 2,2.44771525 2,3 C2,3.55228475 2.44771525,4 3,4 C3.55228475,4 4,3.55228475 4,3 C4,2.44771525 3.55228475,2 3,2 Z M13,2 C12.4477153,2 12,2.44771525 12,3 C12,3.55228475 12.4477153,4 13,4 C13.5522847,4 14,3.55228475 14,3 C14,2.44771525 13.5522847,2 13,2 Z" id="形状结合"></path>
            </g>
        </g>
    </g>
</svg>