<?xml version="1.0" encoding="UTF-8"?>
<svg width="30px" height="18px" viewBox="0 0 30 18" version="1.1" xmlns="http://www.w3.org/2000/svg" xmlns:xlink="http://www.w3.org/1999/xlink">
    <!-- Generator: Sketch 52.5 (67469) - http://www.bohemiancoding.com/sketch -->
    <title>蓝牙手柄</title>
    <desc>Created with Sketch.</desc>
    <g id="Page-1" stroke="none" stroke-width="1" fill="none" fill-rule="evenodd">
        <g id="语句块图标设计" transform="translate(-64.000000, -1482.000000)" fill="#FFFFFF">
            <path d="M89.1979348,1489.07265 C88.6419428,1489.07265 88.1912246,1488.6173 88.1912246,1488.05558 C88.1912246,1487.49386 88.6419428,1487.0385 89.1979348,1487.0385 C89.7539268,1487.0385 90.2046449,1487.49386 90.2046449,1488.05558 C90.2046449,1488.6173 89.7539268,1489.07265 89.1979348,1489.07265 Z M87.2851172,1491.00517 C86.7292391,1491.00517 86.2785209,1490.54981 86.2785209,1489.98809 C86.2785209,1489.42637 86.7292391,1488.97102 87.2851172,1488.97102 C87.8412231,1488.97102 88.2919412,1489.42637 88.2919412,1489.98809 C88.2919412,1490.54981 87.8412231,1491.00517 87.2851172,1491.00517 Z M85.3724135,1489.07265 C84.8164214,1489.07265 84.3657033,1488.6173 84.3657033,1488.05558 C84.3657033,1487.49386 84.8164214,1487.0385 85.3724135,1487.0385 C85.9284055,1487.0385 86.3791236,1487.49386 86.3791236,1488.05558 C86.3791236,1488.6173 85.9284055,1489.07265 85.3724135,1489.07265 Z M83.2326417,1494.31169 C82.298165,1494.31169 81.5407398,1493.54636 81.5407398,1492.60226 C81.5407398,1491.65828 82.298165,1490.89294 83.2326417,1490.89294 C84.1670045,1490.89294 84.9245437,1491.65828 84.9245437,1492.60226 C84.9245437,1493.54636 84.1670045,1494.31169 83.2326417,1494.31169 Z M87.2851172,1485.10611 C87.8412231,1485.10611 88.2919412,1485.56147 88.2919412,1486.12318 C88.2919412,1486.6849 87.8412231,1487.14026 87.2851172,1487.14026 C86.7292391,1487.14026 86.2785209,1486.6849 86.2785209,1486.12318 C86.2785209,1485.56147 86.7292391,1485.10611 87.2851172,1485.10611 Z M74.7674354,1494.31169 C73.8329586,1494.31169 73.0755334,1493.54636 73.0755334,1492.60226 C73.0755334,1491.65828 73.8329586,1490.89294 74.7674354,1490.89294 C75.7017982,1490.89294 76.4592234,1491.65828 76.4592234,1492.60226 C76.4592234,1493.54636 75.7017982,1494.31169 74.7674354,1494.31169 Z M72.9865519,1488.30686 C72.9865519,1488.6882 72.6805284,1488.99749 72.3029552,1488.99749 L71.2414434,1488.99749 L71.2414434,1490.06993 C71.2414434,1490.45151 70.935306,1490.76057 70.5578466,1490.76057 L70.0606439,1490.76057 C69.6830706,1490.76057 69.3770472,1490.45151 69.3770472,1490.06993 L69.3770472,1488.99749 L68.3153075,1488.99749 C67.9378482,1488.99749 67.6317108,1488.6882 67.6317108,1488.30686 L67.6317108,1487.80442 C67.6317108,1487.42307 67.9378482,1487.11378 68.3153075,1487.11378 L69.3770472,1487.11378 L69.3770472,1486.04123 C69.3770472,1485.65988 69.6830706,1485.35059 70.0606439,1485.35059 L70.5578466,1485.35059 C70.935306,1485.35059 71.2414434,1485.65988 71.2414434,1486.04123 L71.2414434,1487.11378 L72.3029552,1487.11378 C72.6805284,1487.11378 72.9865519,1487.42307 72.9865519,1487.80442 L72.9865519,1488.30686 Z M92.9859722,1489.5508 C92.4645018,1487.92344 91.3246043,1484.97063 88.8274253,1483.50775 C86.4019102,1482.08688 80.8400531,1481.9628 79.0000385,1482.00712 C77.160024,1481.9628 71.598053,1482.08688 69.1725378,1483.50775 C66.6753589,1484.97063 65.5355753,1487.92344 65.013991,1489.5508 C64.4055898,1491.44947 62.752539,1496.66492 65.6975877,1498.98948 C68.1282299,1500.90783 70.9384961,1499.79522 72.2617115,1498.13678 C74.4332705,1495.41487 76.4129667,1495.19099 79.0000385,1495.19099 C81.5869965,1495.19099 83.5666927,1495.41487 85.7383656,1498.13678 C87.0614671,1499.79522 89.8718472,1500.90783 92.3023755,1498.98948 C95.2474242,1496.66492 93.5944872,1491.44947 92.9859722,1489.5508 Z" id="蓝牙手柄"></path>
        </g>
    </g>
</svg>